<?xml version="1.0" standalone="no"?>
<!DOCTYPE svg PUBLIC "-//W3C//DTD SVG 20010904//EN"
 "http://www.w3.org/TR/2001/REC-SVG-20010904/DTD/svg10.dtd">
<svg version="1.0" xmlns="http://www.w3.org/2000/svg"
 width="1024.000000pt" height="1024.000000pt" viewBox="0 0 1024.000000 1024.000000"
 preserveAspectRatio="xMidYMid meet">

<g transform="translate(0.000000,1024.000000) scale(0.100000,-0.100000)"
fill="#000000" stroke="none">
<path d="M0 5120 l0 -5120 5120 0 5120 0 0 5120 0 5120 -5120 0 -5120 0 0
-5120z m5250 4325 c82 -22 169 -68 232 -125 l57 -51 168 -29 c950 -165 1843
-654 2478 -1357 173 -191 429 -550 549 -770 228 -420 381 -959 417 -1471 31
-438 -41 -1008 -182 -1435 -22 -66 -49 -138 -60 -159 l-20 -40 -53 50 c-94 89
-186 122 -343 122 l-103 0 0 115 0 115 34 14 c23 10 35 22 39 42 5 24 15 32
52 46 45 16 48 15 81 -4 l34 -20 47 35 c43 30 48 38 45 69 -2 23 5 46 21 69
20 30 28 34 68 34 42 0 45 2 69 47 l25 47 -28 29 c-20 21 -28 38 -25 57 3 30
16 40 61 50 26 5 27 8 27 69 l0 63 -42 9 c-36 8 -43 13 -51 43 -7 30 -5 37 24
67 l32 33 -19 43 c-24 55 -31 60 -80 53 -52 -7 -79 19 -76 73 2 33 -2 40 -44
70 -45 33 -45 33 -72 16 -53 -35 -126 -10 -153 54 l-19 44 -58 -7 c-69 -9 -69
-8 -77 -44 -8 -36 -19 -46 -72 -62 -37 -11 -45 -10 -61 4 -26 24 -43 21 -91
-14 -40 -28 -42 -33 -36 -65 9 -51 -23 -76 -86 -68 -34 5 -48 3 -52 -7 -3 -8
-12 -31 -21 -51 -15 -36 -15 -38 11 -68 22 -26 25 -36 17 -58 -5 -15 -15 -27
-22 -26 -6 1 -62 2 -122 3 l-110 1 2 1133 c3 1130 3 1132 23 1135 12 2 31 -8
45 -23 30 -31 41 -31 79 1 37 31 38 40 10 70 l-21 23 26 34 c26 33 28 34 63
24 31 -10 37 -9 50 8 18 25 27 61 20 79 -3 8 -19 17 -36 21 -29 6 -31 9 -31
54 0 47 1 48 41 64 l40 16 -20 40 c-26 51 -30 52 -75 39 -35 -11 -38 -10 -61
18 l-23 29 21 29 c23 32 18 47 -26 80 l-27 20 -33 -32 c-34 -33 -65 -41 -72
-19 -2 6 -6 29 -10 50 -6 36 -7 37 -46 37 -42 0 -44 -2 -54 -62 -7 -46 -30
-50 -65 -13 -29 31 -51 32 -86 2 l-28 -24 23 -32 23 -32 -26 -34 c-26 -33 -27
-34 -60 -20 -38 16 -41 14 -71 -44 -17 -33 -17 -35 1 -48 10 -7 30 -13 46 -13
27 0 28 -2 28 -50 0 -49 0 -49 -40 -60 -45 -12 -46 -14 -24 -71 18 -43 19 -43
80 -24 17 5 26 -1 44 -30 20 -32 21 -38 8 -53 -28 -33 -28 -41 -1 -66 35 -32
50 -33 83 -1 60 57 56 198 53 -1983 -2 -1098 -5 -2046 -6 -2107 -3 -90 -7
-119 -26 -156 -34 -72 -86 -125 -153 -158 l-61 -31 -2158 0 c-2130 0 -2159 0
-2211 20 -53 19 -116 75 -150 130 -45 75 -43 9 -48 1613 -5 1489 -5 1519 -24
1533 -28 20 -63 17 -86 -6 -18 -18 -20 -33 -20 -134 0 -82 -4 -116 -12 -118
-7 -3 -32 8 -56 23 -65 41 -158 63 -242 57 -135 -10 -292 -114 -353 -234 -46
-92 -47 -111 -47 -929 l0 -775 -133 0 c-183 0 -224 -13 -303 -95 l-61 -63 -17
47 c-52 134 -91 248 -122 356 -166 574 -183 1240 -48 1860 54 246 179 595 289
810 191 370 461 742 750 1030 259 260 555 486 876 667 494 281 979 454 1519
544 105 17 105 18 162 71 120 113 302 160 458 118z m2450 -1655 c38 -27 69
-90 70 -140 0 -49 -38 -120 -79 -147 -114 -76 -273 41 -247 181 9 48 45 98 86
119 47 25 126 19 170 -13z m-5340 -1919 c17 -32 12 -61 -12 -71 -13 -5 -17 -9
-10 -9 6 -1 12 -10 12 -21 0 -13 -9 -21 -27 -25 -60 -13 -58 -6 -61 -219 -1
-108 -5 -196 -9 -196 -3 0 -25 18 -49 40 -24 22 -51 40 -60 40 -23 0 -54 -29
-54 -50 0 -21 108 -129 136 -136 18 -5 23 -15 28 -72 4 -37 6 -122 5 -189 0
-101 -3 -123 -15 -123 -29 0 -111 49 -142 85 -82 92 -95 162 -90 486 l3 245
33 66 c19 39 49 80 70 98 76 63 219 93 242 51z m6129 -516 c40 -13 95 -41 121
-61 55 -42 120 -116 120 -137 0 -8 7 -27 15 -43 25 -51 29 -133 10 -204 -10
-36 -18 -72 -19 -82 -1 -9 -28 -48 -59 -86 -31 -39 -57 -78 -57 -88 0 -12 -3
-14 -13 -6 -15 13 -50 6 -92 -20 -16 -10 -40 -18 -53 -18 -13 0 -36 -6 -51
-14 -24 -13 -33 -13 -67 -1 -21 8 -47 14 -57 15 -10 0 -38 12 -63 26 -24 14
-51 23 -59 20 -11 -4 -31 14 -63 55 -26 34 -57 72 -69 85 -12 13 -20 31 -17
39 3 8 -2 37 -11 66 -19 57 -16 130 11 218 30 101 139 203 261 241 79 26 126
24 212 -5z m-6112 -157 c-3 -7 -5 -2 -5 12 0 14 2 19 5 13 2 -7 2 -19 0 -25z
m5445 -245 c2 -23 9 -29 33 -31 17 -2 36 -8 43 -14 20 -17 14 -63 -13 -88 -31
-29 -31 -37 1 -94 25 -45 27 -46 64 -40 34 6 42 3 65 -22 20 -23 25 -38 22
-67 -2 -36 1 -41 46 -73 l48 -35 34 21 c32 20 35 20 74 4 l41 -16 0 -173 0
-173 -39 -7 c-100 -17 -324 -159 -378 -239 -63 -93 -63 -94 -63 -693 l0 -543
-298 0 -297 0 -85 -43 c-108 -53 -112 -68 -35 -121 30 -21 55 -41 55 -45 0 -3
-25 -26 -55 -49 -30 -24 -55 -49 -55 -57 0 -16 36 -43 105 -78 l50 -25 393 -7
392 -8 0 -29 0 -29 -579 7 c-318 4 -599 4 -624 0 -33 -5 -57 -18 -87 -44 -35
-32 -42 -45 -51 -100 -9 -48 -15 -62 -28 -62 -12 0 -22 13 -30 41 -24 79 -85
126 -184 141 -12 2 -24 18 -32 40 -19 58 -42 87 -93 119 l-46 29 -202 0 c-139
0 -205 4 -210 11 -11 18 -103 403 -97 409 2 3 368 7 812 10 l807 5 76 38 c120
59 208 169 243 302 13 51 15 182 15 950 0 491 3 895 7 898 3 4 39 7 79 7 72 0
73 0 76 -27z m-5691 -206 c24 -14 63 -31 87 -38 l42 -12 0 -117 c0 -116 0
-117 -26 -128 -32 -15 -31 -62 4 -77 26 -12 31 -65 7 -85 -22 -18 -18 -48 10
-75 30 -30 64 -32 99 -4 27 21 36 71 16 84 -5 3 -10 22 -10 42 0 26 5 36 20
40 14 4 20 14 20 34 0 18 -7 32 -20 39 -18 10 -20 21 -20 130 0 70 4 120 10
120 27 0 123 45 162 75 23 19 46 35 51 35 4 0 7 -371 7 -824 0 -797 1 -826 20
-889 39 -127 123 -223 249 -284 l56 -28 730 -6 c402 -4 771 -7 821 -8 l91 -1
-33 -136 c-18 -75 -38 -167 -45 -204 -10 -56 -16 -69 -33 -74 -12 -3 -106 -6
-211 -6 l-190 0 -51 -30 c-55 -31 -90 -76 -100 -129 -6 -27 -11 -31 -38 -31
-75 -1 -154 -64 -177 -140 -9 -28 -18 -40 -31 -40 -14 0 -18 8 -18 35 0 69
-49 140 -113 164 -17 7 -112 11 -231 11 l-203 0 -23 25 -23 25 24 0 c64 1 154
72 185 146 32 76 8 174 -56 227 -60 51 -106 57 -437 57 l-303 0 0 715 0 715
-225 0 -225 0 0 376 0 377 43 -40 c24 -22 63 -52 88 -66z m-274 -796 l57 -29
37 19 c21 10 40 23 44 29 4 6 71 10 172 10 l165 0 -5 -57 c-4 -32 -6 -64 -7
-70 0 -10 -78 -13 -358 -13 -265 0 -361 -3 -370 -12 -20 -20 -14 -79 10 -105
21 -23 25 -23 219 -23 215 0 223 -2 217 -57 l-3 -28 -260 -6 c-143 -3 -263 -4
-267 -2 -12 6 -9 248 3 280 13 34 47 72 74 83 11 5 64 9 117 9 89 1 103 -2
155 -28z m6803 -42 c67 -36 118 -88 149 -154 69 -147 5 -341 -142 -425 -213
-122 -477 21 -495 268 -7 111 42 218 133 288 97 74 242 83 355 23z m-6340
-444 c7 -8 10 -25 6 -40 l-6 -25 -350 0 c-337 0 -351 -1 -370 -20 -24 -24 -25
-47 -3 -72 15 -17 40 -18 370 -18 l353 0 1 -25 c1 -14 2 -33 3 -42 1 -17 -26
-18 -411 -21 l-413 -2 0 133 c0 74 3 137 7 140 3 4 185 7 403 7 340 0 399 -2
410 -15z m5792 -321 c51 -47 94 -89 96 -93 1 -4 -43 -52 -98 -106 l-100 -99 0
-82 c0 -90 -3 -94 -66 -94 l-34 0 2 272 3 272 25 7 c64 18 77 12 172 -77z
m-5798 -174 c0 -58 -2 -303 -5 -545 l-5 -440 -32 -3 -32 -3 0 434 c0 413 -1
436 -19 458 -18 23 -25 24 -176 27 -118 3 -160 0 -172 -10 -14 -11 -15 -49
-12 -313 1 -165 2 -366 1 -447 l-2 -148 -180 0 -180 0 0 404 c0 395 0 405 20
411 11 4 29 0 42 -9 16 -12 47 -16 115 -16 116 0 136 15 117 88 -6 21 -11 22
-106 22 -76 0 -107 -4 -128 -17 -24 -14 -31 -14 -44 -4 -21 18 -23 183 -3 200
12 9 405 18 737 16 l65 0 -1 -105z m-194 -590 l0 -400 -65 0 -65 0 -1 338 c0
185 -3 365 -5 400 l-5 62 70 0 71 0 0 -400z m6615 325 l0 -40 -135 -5 c-74 -3
-150 -2 -167 1 -18 4 -52 3 -75 -3 -31 -6 -49 -6 -66 4 -32 17 -56 0 -60 -41
-5 -53 29 -78 63 -45 12 12 27 15 68 10 28 -3 125 -9 215 -12 l162 -6 0 -104
0 -104 -242 0 c-134 0 -252 -3 -264 -6 -13 -3 -28 1 -38 11 -14 14 -16 42 -16
194 0 98 3 181 7 184 4 4 128 6 277 5 l271 -3 0 -40z m-1197 -145 c209 0 252
-2 262 -15 7 -8 10 -22 6 -30 -5 -13 -43 -15 -292 -13 -265 3 -288 4 -298 21
-15 25 27 62 54 47 11 -6 123 -10 268 -10z m-4630 -27 c2 -13 -4 -25 -15 -30
-10 -4 -125 -7 -255 -5 l-238 3 0 23 c0 12 3 26 7 30 4 3 117 5 252 4 244 -3
246 -3 249 -25z m218 -20 c26 -41 23 -92 -10 -119 -34 -30 -51 -30 -81 0 -48
48 -40 126 14 144 35 12 57 5 77 -25z m2115 -52 c20 -16 21 -21 10 -35 -12
-14 -47 -16 -277 -16 -160 0 -274 -4 -290 -11 -16 -5 -38 -8 -51 -4 -42 10
-53 68 -15 78 10 3 148 5 308 6 272 1 293 0 315 -18z m-2347 -52 c27 -13 41
-48 23 -55 -7 -2 -125 -3 -262 -2 l-250 3 -3 27 -3 28 223 3 c123 1 228 3 235
5 7 1 23 -3 37 -9z m4668 1 c207 0 239 -2 245 -16 3 -8 2 -19 -3 -24 -5 -5
-137 -10 -293 -11 -255 -3 -285 -2 -294 13 -19 30 10 51 62 44 24 -3 151 -6
283 -6z m-4749 -193 c16 -18 16 -22 3 -29 -8 -5 -104 -7 -213 -6 l-198 3 -3
24 c-2 13 1 27 7 31 7 3 96 5 199 2 175 -3 188 -5 205 -25z m5930 12 c6 -9 7
-24 4 -33 -6 -14 -39 -16 -327 -16 l-320 0 0 29 c0 16 6 32 13 34 6 3 149 5
316 4 267 -2 305 -4 314 -18z m-3662 -15 c11 -14 10 -18 -6 -30 -29 -21 -1025
-21 -1025 0 0 8 10 22 22 30 20 14 85 16 509 16 435 0 488 -2 500 -16z m2054
-189 l0 -50 -190 0 -190 0 -3 40 c-5 63 5 66 208 63 l175 -3 0 -50z m225 5 c0
-48 -1 -49 -34 -55 -58 -11 -76 0 -76 49 0 23 3 46 7 49 3 4 28 7 55 7 l48 0
0 -50z m-3862 28 c7 -7 12 -27 12 -45 l0 -33 -550 0 -550 0 0 38 c0 21 3 42 7
45 3 4 245 7 538 7 400 0 534 -3 543 -12z m4062 -33 l0 -45 -50 0 -50 0 0 38
c0 21 3 42 7 45 3 4 26 7 50 7 l43 0 0 -45z m1175 -5 l0 -45 -317 -3 -318 -2
0 43 c0 24 3 47 7 50 4 4 146 6 317 5 l311 -3 0 -45z m-3645 22 c22 -10 36
-26 38 -39 l3 -23 -660 0 c-547 0 -661 2 -661 13 0 17 28 43 60 56 15 6 247
10 605 10 533 1 583 0 615 -17z m-2746 -270 l-7 -82 -533 0 -534 0 0 64 c0 46
5 70 18 85 17 21 21 21 532 24 283 1 519 -1 523 -4 4 -3 5 -42 1 -87z m482 84
c15 -12 17 -18 8 -33 -18 -30 -55 -29 -81 4 -17 20 -23 24 -23 11 0 -40 -26
-48 -151 -48 l-119 0 0 35 0 35 163 3 c89 1 167 4 173 5 5 1 19 -4 30 -12z
m2980 -11 c31 -20 54 -72 54 -120 l0 -35 -750 0 -750 0 0 36 c0 39 23 96 46
115 8 6 28 14 45 18 16 3 323 5 680 4 587 -1 652 -3 675 -18z m917 17 l498 -2
-3 -36 -3 -36 -205 1 c-113 0 -199 -3 -192 -5 15 -7 16 -48 2 -75 -10 -18 -26
-19 -420 -19 l-410 0 0 43 c-1 23 -7 60 -15 81 -8 22 -12 42 -10 45 3 7 46 7
758 3z m991 -8 c21 -20 20 -31 -3 -44 -34 -18 -60 -12 -67 15 -3 14 -10 25
-15 25 -12 0 -11 -7 1 -31 7 -13 7 -19 0 -19 -5 0 -10 5 -10 10 0 6 -11 3 -24
-5 -19 -12 -48 -15 -142 -13 l-119 3 0 30 0 30 155 5 c85 3 167 7 182 8 15 1
34 -5 42 -14z m-3514 -4 c0 -5 11 -10 25 -10 33 0 33 -23 -1 -67 -17 -23 -24
-43 -21 -59 l4 -24 -598 0 -599 0 0 69 c0 38 3 76 6 85 6 14 67 16 595 16 386
0 589 -3 589 -10z m4750 -75 l0 -85 -525 0 -525 0 0 73 c0 43 5 78 12 85 9 9
139 12 525 12 l513 0 0 -85z m-620 -267 c11 -18 20 -46 20 -63 0 -36 -31 -89
-62 -107 -19 -10 -231 -14 -1090 -16 l-1068 -2 0 59 c0 66 -15 87 -55 77 -23
-6 -30 -21 -25 -55 1 -8 -1 -29 -5 -48 l-6 -33 -224 0 -225 0 0 65 c0 62 -1
65 -27 71 -46 12 -58 -6 -55 -75 l4 -61 -196 0 -196 0 -1 38 c-1 80 -11 102
-47 102 -44 0 -55 -20 -47 -86 l7 -56 -449 3 -448 4 -5 60 -5 60 -40 0 -40 0
-3 -63 -3 -62 -187 2 -187 3 -3 57 c-3 63 -19 84 -57 74 -24 -6 -25 -10 -25
-72 l0 -65 -787 3 c-739 3 -790 4 -821 21 -42 23 -66 77 -59 131 3 22 14 46
23 53 14 11 623 13 3196 13 l3178 0 20 -32z m-5710 -303 c6 -8 9 -23 5 -35 -6
-20 -12 -20 -138 -18 -121 3 -132 5 -135 22 -7 36 24 46 144 46 85 0 114 -3
124 -15z m434 -1 c12 -12 13 -20 6 -35 -10 -17 -23 -19 -153 -19 -98 0 -147 4
-155 12 -16 16 -15 23 4 42 23 23 275 23 298 0z m916 -4 c12 -18 12 -21 1 -39
-7 -11 -81 -13 -396 -13 -237 0 -391 4 -397 10 -6 6 -8 18 -6 28 4 24 84 29
491 29 254 0 299 -2 307 -15z m2771 11 c4 -1 10 -8 13 -17 17 -45 60 -44
-1294 -44 -1123 0 -1279 2 -1290 15 -10 12 -10 18 0 30 11 13 114 15 784 17
693 3 1771 2 1787 -1z m349 -9 l23 -19 -21 -21 c-12 -12 -34 -22 -50 -22 -32
0 -72 25 -72 45 0 35 83 47 120 17z m496 4 c15 -12 17 -18 8 -33 -10 -16 -30
-19 -149 -23 -107 -4 -142 -2 -152 8 -17 17 -16 27 3 46 22 22 260 23 290 2z
m298 8 c19 -7 21 -45 4 -62 -15 -15 -63 -16 -89 -2 -21 12 -25 40 -7 58 13 13
66 16 92 6z m290 -10 c9 -8 16 -19 16 -23 0 -25 -72 -47 -120 -36 -37 8 -50
43 -24 62 25 18 109 17 128 -3z m210 10 c23 -9 20 -51 -4 -64 -30 -16 -79 3
-80 32 0 4 7 14 16 22 16 17 41 20 68 10z m-4984 -193 c20 -38 -15 -70 -60
-56 -23 7 -29 60 -7 68 27 12 57 6 67 -12z m361 9 c21 -12 25 -40 7 -58 -14
-14 -225 -17 -246 -3 -22 14 -10 54 18 62 40 11 199 10 221 -1z m1735 -11 c19
-21 18 -21 -5 -40 -22 -18 -51 -19 -793 -19 -511 0 -776 3 -789 10 -24 13 -25
46 -1 59 11 7 285 10 793 11 775 0 776 0 795 -21z m572 9 c18 -18 14 -46 -7
-58 -12 -6 -101 -10 -220 -10 -168 0 -202 2 -215 16 -9 8 -16 19 -16 24 0 5 7
16 16 24 13 14 48 16 223 16 148 0 210 -3 219 -12z m493 2 c10 -6 19 -19 19
-30 0 -11 -9 -24 -19 -30 -26 -13 -316 -13 -342 0 -21 12 -25 40 -7 58 15 15
320 17 349 2z m470 0 c10 -6 19 -19 19 -30 0 -11 -9 -24 -19 -30 -28 -15 -314
-13 -329 2 -17 17 -15 45 6 57 23 14 298 14 323 1z"/>
<path d="M5035 9141 c-104 -47 -150 -178 -97 -277 18 -35 87 -91 127 -104 120
-40 256 63 256 194 0 152 -149 250 -286 187z m140 -126 c31 -30 34 -93 8 -118
-57 -50 -143 -15 -143 59 0 45 37 84 80 84 19 0 40 -9 55 -25z"/>
<path d="M5830 8880 c-8 -15 -8 -20 2 -21 7 -1 23 -3 36 -4 28 -3 50 30 26 39
-29 11 -53 6 -64 -14z"/>
<path d="M5906 8863 c-23 -25 -27 -26 -64 -15 -47 14 -74 16 -54 4 9 -7 8 -13
-7 -26 -18 -16 -47 -14 -37 3 3 4 -6 8 -19 9 -30 2 -40 -24 -14 -39 31 -16 19
-43 -21 -49 -32 -5 -35 -8 -35 -40 0 -28 4 -36 22 -38 46 -7 55 -64 12 -77
-26 -8 -24 -16 10 -49 21 -20 42 -29 71 -31 22 -1 48 -10 58 -19 27 -24 73
-21 79 5 5 16 11 19 30 14 14 -3 31 -1 39 6 18 15 18 48 -1 55 -26 10 -6 24
34 24 32 0 40 4 45 23 12 47 7 67 -18 67 -34 0 -41 35 -10 49 28 13 30 34 7
65 -17 22 -17 22 -36 3 -17 -17 -20 -17 -37 -2 -21 19 -32 63 -17 68 8 2 7 6
0 10 -7 4 -23 -5 -37 -20z m-50 -127 c-44 -38 -47 -71 -6 -71 21 0 25 5 26 32
0 17 6 39 14 47 12 15 14 15 31 0 21 -19 25 -65 8 -96 -30 -56 -125 -53 -155
4 -31 59 10 118 80 118 l41 -1 -39 -33z m-89 -196 c-1 -11 -5 -20 -9 -20 -10
0 -10 4 -2 24 8 22 13 20 11 -4z m170 -2 c-3 -8 -6 -5 -6 6 -1 11 2 17 5 13 3
-3 4 -12 1 -19z m40 5 c0 -7 -4 -13 -8 -13 -4 0 -9 6 -12 13 -3 8 0 14 7 14 7
0 13 -6 13 -14z"/>
<path d="M3837 8764 c-4 -4 -7 -19 -7 -33 0 -53 -42 -73 -90 -45 l-30 18 -35
-34 c-40 -39 -43 -50 -16 -74 18 -16 18 -20 3 -57 -12 -31 -20 -39 -41 -39
-42 0 -53 -13 -49 -56 3 -37 5 -39 39 -42 31 -3 38 -9 57 -46 l21 -44 -25 -23
-24 -23 32 -33 c38 -39 48 -40 77 -9 34 36 69 25 77 -26 7 -39 7 -39 48 -36
38 3 41 5 44 36 5 49 43 61 84 27 l31 -26 24 23 c42 39 47 57 24 82 -19 20
-19 24 -6 42 8 10 15 27 15 36 0 12 12 19 45 24 54 8 58 13 49 58 -6 32 -9 35
-47 38 -38 3 -41 6 -55 47 -14 43 -14 44 9 62 l24 18 -34 35 c-38 40 -56 44
-82 21 -11 -11 -26 -14 -42 -10 -21 6 -28 15 -34 48 -8 39 -11 42 -44 45 -19
2 -38 0 -42 -4z m110 -205 c25 -21 43 -66 43 -106 0 -121 -173 -157 -225 -47
-53 111 88 230 182 153z"/>
<path d="M3824 8495 c-34 -52 15 -112 71 -87 54 25 35 112 -25 112 -20 0 -35
-8 -46 -25z m80 -1 c30 -30 10 -74 -34 -74 -40 0 -58 32 -35 66 18 28 46 31
69 8z"/>
<path d="M6434 8710 c-12 -4 -35 -26 -53 -47 l-32 -38 48 -5 c72 -8 134 -57
158 -125 l12 -37 22 30 c29 42 37 108 18 155 -27 62 -107 94 -173 67z"/>
<path d="M3008 8564 c-15 -15 -7 -56 28 -152 43 -116 88 -197 119 -218 13 -8
50 -18 82 -21 57 -5 59 -6 151 -96 50 -51 92 -95 92 -99 0 -5 -9 -8 -21 -8
-15 0 -20 -5 -17 -22 3 -21 9 -23 75 -26 l73 -3 21 44 21 43 -21 42 c-23 46
-37 51 -57 25 -12 -16 -19 -12 -85 54 l-72 71 -13 91 c-17 110 -35 158 -66
170 -13 6 -72 31 -132 56 -111 48 -165 63 -178 49z m214 -164 c51 -19 58 -25
68 -58 17 -64 14 -82 -17 -82 -62 0 -73 10 -119 102 -45 90 -45 90 -17 74 15
-9 54 -25 85 -36z"/>
<path d="M6949 8557 c-170 -64 -255 -241 -184 -384 53 -105 162 -177 270 -176
243 0 378 307 212 481 -72 75 -210 112 -298 79z m95 -103 c23 -23 19 -51 -10
-71 -79 -55 -84 -63 -84 -113 0 -42 4 -52 31 -74 40 -34 79 -33 120 2 18 15
30 21 25 15 -6 -12 18 -19 47 -14 4 1 0 -10 -9 -24 -9 -13 -40 -36 -68 -50
-45 -22 -59 -24 -94 -17 -75 17 -126 71 -146 155 -20 85 69 199 161 206 6 1
19 -6 27 -15z"/>
<path d="M4823 8364 c-159 -81 -520 -265 -803 -410 -283 -145 -567 -288 -630
-318 -130 -61 -170 -92 -170 -131 0 -32 41 -75 71 -75 23 0 150 62 521 256
547 285 1316 674 1333 674 15 0 545 -265 950 -475 66 -34 257 -133 425 -220
168 -87 339 -176 381 -199 68 -36 79 -39 103 -28 40 18 53 55 34 95 -17 36 6
23 -748 413 -414 213 -1053 532 -1104 550 -21 8 -47 14 -57 14 -10 0 -148 -66
-306 -146z"/>
<path d="M2762 8254 c-24 -17 -30 -62 -10 -82 37 -37 113 12 88 57 -9 17 -39
41 -52 41 -2 0 -14 -7 -26 -16z"/>
<path d="M7471 8241 c-14 -26 -14 -54 1 -69 19 -19 63 -14 84 9 17 19 17 23 3
47 -19 35 -72 43 -88 13z"/>
<path d="M5075 8142 c-22 -9 -150 -73 -285 -142 -135 -70 -434 -223 -665 -340
-231 -116 -426 -218 -434 -226 -12 -11 -10 -15 14 -24 15 -6 57 -27 92 -47
l65 -36 -52 -30 c-79 -46 -108 -107 -78 -172 16 -35 23 -32 38 16 8 23 23 47
34 54 20 13 504 206 836 334 85 32 205 80 265 105 l110 45 3 -26 c5 -35 -8
-44 -118 -88 -144 -56 -861 -337 -973 -380 -77 -29 -101 -43 -112 -65 -13 -25
-105 -453 -105 -487 0 -11 14 -13 60 -11 64 3 63 2 75 71 7 43 21 41 30 -6 14
-69 11 -67 81 -67 35 0 64 3 64 6 0 4 -14 81 -30 172 -17 90 -29 167 -26 169
2 3 93 -42 200 -99 l195 -103 1 -152 0 -153 -697 0 c-664 0 -700 -1 -740 -19
-79 -36 -73 91 -73 -1510 0 -886 4 -1439 10 -1455 22 -60 -137 -56 2255 -56
1896 0 2190 2 2221 15 68 28 64 -69 64 1501 0 1290 -1 1419 -16 1450 -34 72 1
68 -784 74 l-705 5 0 140 0 140 178 96 177 97 0 -184 0 -184 201 0 200 0 -3
303 c-3 345 -5 352 -93 446 l-47 50 53 27 c50 25 52 27 34 40 -11 8 -150 80
-310 161 -159 80 -319 162 -355 181 -36 19 -219 113 -407 208 -364 185 -372
188 -448 156z m665 -517 c7 -8 10 -21 7 -29 -8 -21 -81 -56 -116 -56 -64 0
-36 56 43 84 53 19 51 19 66 1z m-228 -112 c10 -9 18 -22 18 -29 0 -13 -366
-214 -389 -214 -19 0 -171 81 -171 91 0 5 11 15 23 24 21 14 28 14 67 0 86
-30 108 -24 364 114 68 36 64 36 88 14z m957 -262 c55 -70 61 -101 61 -338 l0
-214 -77 3 -78 3 -3 287 c-2 250 0 288 14 302 20 21 42 9 83 -43z m-219 -91
l0 -80 -161 -80 c-88 -45 -200 -103 -247 -129 -48 -26 -224 -119 -391 -206
l-305 -158 -125 63 c-249 123 -797 419 -865 465 l-39 27 22 17 c12 10 41 28
64 40 l42 23 330 -172 c182 -95 384 -201 451 -236 l121 -64 94 50 c190 100
1002 520 1007 520 1 0 2 -36 2 -80z m-1721 -587 c22 -13 31 -26 31 -44 0 -21
12 -32 73 -66 39 -23 103 -56 140 -75 57 -27 69 -30 77 -18 7 12 30 4 127 -43
70 -34 131 -57 150 -57 32 0 99 32 476 229 87 46 161 81 164 77 15 -15 -15
-37 -126 -95 -67 -34 -121 -68 -121 -75 0 -7 6 -20 13 -29 11 -16 21 -12 120
38 59 30 110 55 112 55 3 0 5 -7 5 -15 0 -8 -21 -23 -46 -35 -65 -28 -285
-149 -306 -168 -25 -21 -23 -52 3 -52 11 0 62 22 113 50 51 27 96 47 99 43 4
-4 17 4 29 16 20 22 76 51 98 51 64 0 -223 -152 -390 -206 -78 -26 -98 -28
-235 -28 -134 0 -159 3 -240 27 -100 31 -354 150 -391 184 -23 21 -24 29 -24
138 0 63 4 115 9 115 5 0 23 -8 40 -17z m-136 -296 c36 -36 85 -69 162 -109
199 -102 346 -152 500 -168 187 -20 347 17 595 136 180 87 226 117 242 160
l12 34 663 0 663 0 14 -22 c12 -20 15 -215 16 -1365 1 -1337 1 -1342 -20
-1363 -20 -20 -22 -20 -2118 -20 -1796 0 -2101 2 -2118 14 -19 14 -19 40 -19
1369 0 1133 2 1357 14 1370 12 16 72 17 678 17 l664 0 52 -53z"/>
<path d="M3122 6168 c-17 -17 -17 -2429 0 -2446 9 -9 468 -12 2005 -12 1959 0
1992 0 2003 19 7 13 10 413 10 1225 0 1181 0 1206 -19 1216 -13 6 -212 10
-578 10 l-559 0 -48 -30 c-218 -139 -538 -253 -744 -266 -225 -14 -545 84
-797 245 l-79 51 -591 0 c-446 0 -594 -3 -603 -12z m543 -298 l0 -125 -153 -3
c-94 -1 -160 2 -172 8 -18 10 -20 21 -20 118 0 72 4 112 12 120 9 9 57 12 173
10 l160 -3 0 -125z m395 85 c7 -8 10 -22 6 -30 -5 -13 -26 -15 -133 -13 -116
3 -128 5 -131 22 -6 30 16 36 134 36 87 0 114 -3 124 -15z m2085 -35 l0 -25
-115 0 c-104 0 -115 2 -118 19 -6 30 17 36 128 34 105 -3 105 -3 105 -28z
m785 -95 l0 -35 -67 0 c-79 0 -123 -21 -148 -71 -24 -44 -6 -61 35 -31 28 21
79 29 94 15 4 -4 25 -6 46 -4 l40 3 0 -41 c0 -39 -2 -41 -30 -41 -37 0 -77
-18 -85 -38 -9 -24 18 -44 69 -49 45 -5 46 -7 46 -39 0 -34 0 -34 -49 -34 -54
0 -74 -15 -69 -52 3 -21 9 -23 61 -26 l57 -3 0 -34 c0 -34 -1 -35 -41 -35 -52
0 -79 -15 -79 -43 0 -35 19 -47 73 -47 l48 0 -3 -32 -3 -33 -275 0 -275 0 0
30 0 30 76 5 c78 5 109 19 109 50 0 30 -23 39 -105 42 l-80 3 0 195 0 194 60
-1 c101 -2 150 31 109 71 -11 11 -35 16 -79 16 -35 0 -70 3 -79 6 -16 6 -22
45 -9 57 3 4 129 7 280 7 l273 0 0 -35z m-2870 -30 c10 -12 10 -18 0 -30 -10
-12 -38 -15 -132 -15 -123 0 -139 6 -124 45 4 12 28 15 124 15 94 0 122 -3
132 -15z m2049 -1 c25 -5 31 -11 29 -28 -3 -19 -10 -21 -63 -21 -66 0 -82 18
-35 42 29 15 28 15 69 7z m-1519 -69 c0 -22 -4 -25 -35 -25 l-35 0 0 -95 c0
-95 0 -95 -25 -95 -25 0 -25 0 -25 95 0 52 -3 94 -7 94 -5 -1 -23 -1 -40 0
-26 1 -33 5 -33 20 0 21 21 26 143 29 55 2 57 1 57 -23z m208 -2 c-3 -25 -7
-26 -53 -27 -44 -1 -50 -4 -53 -23 -3 -21 1 -23 42 -23 42 0 46 -2 46 -25 0
-23 -4 -25 -45 -25 -38 0 -45 -3 -45 -20 0 -18 7 -20 55 -20 52 0 55 -1 55
-25 0 -26 0 -26 -82 -23 l-83 3 -3 104 c-1 58 0 111 2 118 4 9 29 13 86 13
l81 0 -3 -27z m205 8 c5 -5 7 -17 3 -26 -5 -13 -14 -16 -40 -11 -23 4 -37 2
-45 -7 -14 -17 0 -31 42 -41 66 -16 87 -78 40 -116 -23 -18 -38 -21 -81 -18
-62 5 -82 20 -65 46 6 9 17 15 25 13 7 -2 30 -6 51 -9 31 -3 37 -1 37 15 0 14
-11 23 -40 32 -50 15 -70 35 -70 71 0 42 44 73 94 67 21 -3 43 -10 49 -16z
m503 -46 c26 -35 51 -62 56 -59 4 3 8 32 8 65 0 56 1 59 25 59 l25 0 0 -120
c0 -112 -1 -120 -19 -120 -12 0 -38 24 -68 61 l-48 62 -5 -59 c-5 -55 -7 -59
-32 -62 l-28 -3 0 115 c0 101 2 115 18 119 9 3 18 5 19 6 1 0 23 -28 49 -64z
m341 50 l36 -15 -23 -25 c-16 -17 -27 -22 -34 -15 -18 18 -64 11 -80 -12 -34
-48 -4 -108 54 -108 23 0 30 4 30 20 0 13 -7 20 -20 20 -15 0 -20 7 -20 25 0
22 4 25 38 25 47 0 62 -14 62 -57 0 -57 -54 -92 -123 -79 -85 16 -120 132 -60
199 35 38 82 46 140 22z m-591 -17 c-1 -19 -8 -24 -38 -26 l-38 -3 0 -90 c0
-88 0 -89 -25 -89 -25 0 -25 1 -25 90 l0 90 -40 0 c-36 0 -40 3 -40 25 l0 25
104 0 c101 0 103 -1 102 -22z m94 -93 l0 -115 -25 0 -25 0 0 115 0 115 25 0
25 0 0 -115z m796 0 c14 -35 -34 -55 -93 -39 -22 6 -31 33 -16 47 3 4 28 7 55
7 34 0 50 -4 54 -15z m-2487 -9 c8 -9 11 -54 9 -132 l-3 -119 -153 -3 c-94 -1
-160 2 -172 8 -18 10 -20 21 -20 120 0 143 -4 140 186 140 109 0 144 -3 153
-14z m392 -26 c24 -13 25 -37 2 -47 -10 -5 -70 -6 -133 -3 -109 5 -115 6 -118
27 -2 16 3 23 20 26 47 9 210 7 229 -3z m9 -165 c10 -12 10 -18 0 -30 -19 -23
-245 -22 -254 1 -14 35 12 44 129 44 88 0 115 -3 125 -15z m246 -92 c9 -21 28
-66 44 -100 l29 -63 -23 0 c-13 0 -29 7 -36 15 -7 9 -29 15 -52 15 -25 0 -41
-5 -44 -15 -4 -8 -17 -15 -31 -15 -28 0 -27 7 14 100 48 111 73 126 99 63z
m154 -43 c4 -62 8 -75 23 -78 35 -7 47 17 47 89 0 67 1 69 25 69 24 0 25 -2
25 -74 0 -64 -3 -79 -23 -101 -34 -40 -92 -38 -129 4 -24 27 -28 40 -28 94 0
70 4 79 35 75 18 -3 21 -12 25 -78z m486 23 l43 -52 36 49 c22 30 44 50 56 50
17 0 19 -8 19 -95 0 -94 0 -95 -24 -95 -22 0 -25 5 -28 42 l-3 42 -28 -42
c-15 -23 -31 -42 -35 -42 -4 0 -19 19 -34 43 l-28 42 0 -42 c0 -39 -2 -43 -25
-43 l-25 0 0 101 c0 120 9 125 76 42z m664 -43 l0 -100 -25 0 c-25 0 -25 0
-25 93 0 52 3 97 7 100 3 4 15 7 25 7 16 0 18 -10 18 -100z m372 46 c24 -30
45 -55 48 -55 3 -1 5 23 5 51 0 48 2 53 23 53 12 0 22 -3 22 -7 0 -5 0 -48 0
-98 0 -82 -2 -90 -19 -90 -12 0 -35 21 -58 50 -21 27 -41 49 -45 50 -5 0 -8
-22 -8 -50 0 -47 -2 -50 -25 -50 -25 0 -25 0 -25 93 0 130 14 139 82 53z
m-1191 15 c64 -64 20 -161 -73 -161 -30 0 -46 7 -69 29 -62 62 -19 161 71 161
33 0 48 -6 71 -29z m522 -66 c46 -93 46 -95 23 -95 -13 0 -29 7 -36 15 -8 9
-30 15 -57 15 -30 0 -45 -5 -49 -15 -6 -15 -54 -22 -54 -8 0 4 19 47 42 95 56
120 68 119 131 -7z m207 75 c0 -16 -7 -20 -35 -20 l-35 0 0 -75 c0 -73 -1 -75
-25 -75 -23 0 -25 4 -25 44 0 24 -3 58 -6 75 -6 26 -11 31 -35 31 -22 0 -29 5
-29 20 0 19 7 20 95 20 88 0 95 -1 95 -20z m311 -9 c83 -84 -22 -202 -130
-146 -33 17 -41 33 -41 84 0 57 36 91 95 91 38 0 52 -5 76 -29z m-1822 -205
c6 -7 9 -21 5 -30 -5 -14 -40 -16 -329 -16 -178 0 -330 3 -339 6 -21 8 -20 31
2 43 10 7 137 11 333 11 257 0 319 -3 328 -14z m451 -91 c42 -22 60 -53 60
-105 0 -52 -18 -83 -60 -105 -53 -28 -120 -11 -154 37 -18 26 -21 100 -5 129
14 28 69 59 102 59 15 0 41 -7 57 -15z m1285 4 c11 -18 -21 -44 -207 -170
-171 -115 -179 -122 -173 -148 3 -15 1 -41 -5 -57 -36 -94 -145 -117 -214 -45
l-27 29 -51 -34 c-81 -55 -409 -214 -608 -296 -221 -90 -395 -149 -545 -183
-212 -49 -600 -58 -600 -15 0 12 15 16 65 17 413 16 547 39 855 146 217 75
609 255 788 362 64 38 80 53 93 85 33 81 103 110 179 74 l34 -16 147 97 c80
52 167 111 192 130 47 36 66 42 77 24z m-920 -49 c0 -25 -2 -25 -86 -28 -68
-2 -89 1 -99 13 -10 12 -10 18 0 30 10 12 31 15 99 13 84 -3 86 -3 86 -28z
m505 6 c0 -15 -7 -26 -20 -29 -32 -8 -380 5 -386 15 -3 5 -3 15 0 23 4 13 40
15 206 15 l200 0 0 -24z m-1604 -53 c3 -16 7 -33 9 -39 2 -5 21 -16 44 -23 39
-11 43 -10 76 14 l34 26 30 -22 c36 -27 38 -37 11 -72 -19 -24 -20 -31 -9 -69
17 -57 26 -68 60 -68 29 0 29 0 29 -64 l0 -65 -37 -3 c-35 -3 -37 -5 -49 -52
-12 -45 -11 -52 7 -77 25 -35 24 -40 -9 -72 -34 -33 -35 -33 -72 -5 -25 18
-35 20 -67 12 -31 -7 -40 -15 -49 -44 -13 -39 -27 -45 -90 -35 -39 6 -43 9
-46 38 -3 28 -8 34 -46 46 -41 13 -45 12 -80 -13 l-36 -26 -23 22 c-27 25 -28
42 -8 81 8 15 12 33 10 40 -2 7 -9 31 -15 55 -10 41 -12 42 -51 42 l-40 0 3
57 c3 56 3 56 42 67 33 9 40 17 53 54 13 40 13 45 -8 78 l-21 35 23 25 c28 29
46 30 75 3 19 -18 26 -19 63 -9 23 6 44 16 46 23 25 70 21 67 80 67 51 0 55
-2 61 -27z m2839 -66 l6 -73 64 -21 64 -21 40 34 c21 19 43 34 48 34 4 0 34
-17 66 -38 l57 -39 -38 -58 -38 -59 36 -83 35 -83 57 0 58 0 0 -85 0 -85 -59
0 -60 0 -21 -57 c-12 -32 -28 -68 -36 -80 -13 -21 -11 -27 27 -83 23 -34 40
-62 38 -64 -2 -1 -27 -19 -55 -39 -29 -20 -56 -37 -60 -37 -5 1 -28 18 -52 39
l-43 38 -62 -17 c-52 -14 -62 -21 -65 -41 -1 -13 -5 -43 -8 -66 l-5 -43 -74 0
-74 0 -7 70 c-5 55 -10 70 -23 70 -9 1 -34 7 -56 15 -38 14 -40 13 -80 -19
-63 -51 -62 -51 -121 -11 -30 21 -54 40 -54 43 0 3 16 29 36 58 l36 53 -25 68
c-14 37 -28 76 -31 86 -4 14 -17 17 -66 17 l-61 0 3 83 3 82 55 5 54 5 33 78
32 78 -34 54 c-19 30 -35 58 -35 64 0 11 93 81 107 81 5 0 31 -16 57 -36 l46
-37 59 24 60 23 7 73 6 73 73 0 73 0 7 -73z m-1585 -32 c10 -12 10 -18 0 -30
-10 -12 -42 -15 -170 -15 -128 0 -160 3 -170 15 -10 12 -10 18 0 30 10 12 42
15 170 15 128 0 160 -3 170 -15z m866 -97 c5 -7 7 -203 4 -438 l-5 -425 -86
-3 c-68 -2 -89 1 -99 13 -9 11 -13 109 -15 417 -1 222 2 413 6 426 8 21 14 22
98 22 59 0 91 -4 97 -12z m-1225 -68 c26 -15 25 -48 -3 -55 -13 -3 -117 -4
-233 -3 -193 3 -210 4 -213 21 -9 43 9 47 225 47 122 0 212 -4 224 -10z m866
-224 c4 -8 6 -136 3 -286 -4 -226 -7 -272 -20 -280 -22 -14 -164 -12 -178 2
-9 9 -12 86 -12 283 0 197 3 274 12 283 18 18 185 16 195 -2z m-369 -305 c2
-171 -1 -248 -9 -257 -8 -10 -36 -14 -95 -14 -118 0 -114 -9 -114 263 0 134 4
226 11 238 9 18 19 19 107 17 l97 -3 3 -244z m-370 -78 c3 -197 5 -193 -109
-193 -117 0 -119 3 -119 184 0 79 3 152 6 161 5 13 22 15 113 13 l106 -3 3
-162z m-385 -8 c11 -11 14 -30 10 -77 -8 -116 0 -108 -106 -108 -59 0 -97 4
-105 12 -7 7 -12 43 -12 90 0 63 3 79 18 87 28 17 178 14 195 -4z m-387 -110
c14 -21 15 -31 6 -50 -11 -24 -15 -25 -111 -25 -94 0 -100 1 -107 23 -4 12 -7
29 -5 37 7 34 23 40 112 40 84 0 89 -1 105 -25z m-408 -17 c16 -16 15 -33 -4
-52 -19 -20 -193 -23 -212 -4 -13 13 -16 50 -5 61 12 13 208 8 221 -5z"/>
<path d="M3397 5900 c-3 -12 -14 -20 -26 -20 -12 0 -21 -4 -21 -10 0 -5 11
-10 25 -10 16 0 25 -6 25 -15 0 -12 18 -15 100 -15 l100 0 0 45 0 45 -99 0
c-90 0 -99 -2 -104 -20z"/>
<path d="M3400 5521 c-5 -11 -20 -22 -32 -24 l-23 -4 22 -2 c13 0 30 -12 39
-26 15 -24 21 -25 105 -25 l89 0 0 50 0 50 -95 0 c-83 0 -96 -2 -105 -19z"/>
<path d="M4252 5265 c-11 -23 -10 -25 14 -25 20 0 25 4 20 16 -3 9 -6 20 -6
25 0 18 -17 8 -28 -16z"/>
<path d="M4686 5304 c-21 -21 -20 -57 2 -77 23 -21 46 -22 66 -1 32 32 10 94
-34 94 -10 0 -26 -7 -34 -16z"/>
<path d="M5230 5271 c-14 -27 -9 -34 18 -29 19 3 19 5 8 27 l-13 24 -13 -22z"/>
<path d="M5722 5308 c-7 -7 -12 -26 -12 -43 0 -37 15 -55 46 -55 24 0 54 34
54 61 0 37 -62 63 -88 37z"/>
<path d="M5197 4732 c-22 -24 -21 -55 1 -75 38 -35 102 -9 102 40 0 47 -71 71
-103 35z"/>
<path d="M3606 4790 c-34 -10 -91 -63 -112 -102 -18 -35 -18 -101 0 -137 22
-42 81 -89 127 -101 60 -16 110 -4 159 38 89 76 94 178 13 253 -58 55 -117 70
-187 49z"/>
<path d="M6379 4615 c-192 -100 -189 -357 5 -457 53 -27 146 -30 197 -5 59 29
115 83 139 134 29 62 24 146 -14 220 -60 119 -211 169 -327 108z"/>
<path d="M5828 4328 c-3 -40 -3 -91 1 -113 5 -29 8 -8 9 73 1 61 0 112 -2 112
-2 0 -6 -33 -8 -72z"/>
<path d="M6635 8055 c-49 -48 -19 -125 50 -125 39 0 75 31 75 66 0 33 -47 84
-76 84 -14 0 -36 -11 -49 -25z"/>
<path d="M2602 7988 c-7 -7 -12 -33 -12 -58 l0 -45 -62 -28 -62 -27 -27 26
c-36 34 -65 27 -108 -26 -36 -45 -37 -37 14 -106 6 -9 3 -27 -12 -58 -21 -43
-24 -45 -70 -48 l-48 -3 0 -80 0 -80 47 -5 c26 -3 50 -8 53 -11 3 -3 11 -26
19 -52 13 -44 13 -47 -10 -68 -33 -31 -30 -47 13 -91 23 -23 31 -38 22 -38 -8
0 -31 -9 -52 -20 -20 -11 -46 -20 -57 -20 -28 0 -59 38 -72 87 -5 23 -16 47
-23 53 -8 7 -58 10 -131 8 l-118 -3 -18 -60 c-27 -90 -64 -106 -144 -63 l-41
22 -65 -58 c-88 -78 -95 -92 -69 -144 25 -50 26 -61 4 -107 -13 -27 -26 -38
-55 -45 -21 -6 -42 -19 -48 -30 -5 -10 -10 -73 -10 -139 0 -131 -5 -122 66
-136 17 -3 42 -17 54 -30 l22 -24 -26 -56 -26 -57 72 -75 c78 -79 80 -80 149
-50 33 15 39 15 69 -1 26 -13 38 -28 50 -67 l17 -50 134 0 c126 0 134 1 137
20 12 70 23 93 51 105 25 10 35 8 70 -9 22 -12 46 -21 53 -21 12 0 74 60 136
131 l23 26 -22 46 c-30 61 -19 85 47 107 l49 17 3 136 3 136 -48 25 c-26 13
-56 38 -66 54 -17 30 -17 32 4 71 34 65 24 96 -49 158 -44 37 -57 53 -43 53
11 0 33 12 50 26 29 24 32 24 53 9 13 -8 40 -20 61 -26 36 -10 37 -11 37 -59
l0 -50 85 0 85 0 0 38 c0 49 5 54 72 84 l56 26 28 -29 c15 -16 33 -29 39 -29
13 0 95 82 95 94 0 5 -12 25 -27 44 -25 33 -26 37 -14 81 7 25 14 48 17 51 3
2 29 7 57 10 l52 5 0 80 0 80 -51 3 c-49 3 -51 4 -72 46 l-21 44 30 41 31 41
-37 45 c-43 52 -61 55 -103 20 l-30 -25 -59 27 c-56 27 -58 30 -65 75 -3 26
-9 52 -13 57 -9 15 -128 14 -143 -1z m78 -83 c0 -16 -6 -25 -15 -25 -28 0 -18
40 13 49 1 1 2 -10 2 -24z m75 -149 c135 -63 193 -215 130 -342 -40 -80 -118
-124 -219 -124 -63 0 -119 25 -170 75 -48 48 -66 90 -66 157 0 75 15 118 56
166 75 88 174 113 269 68z m-429 -207 c3 -6 2 -15 -4 -21 -11 -11 -52 6 -52
22 0 14 47 13 56 -1z m744 -4 c0 -9 -9 -15 -25 -15 -16 0 -25 6 -25 15 0 9 9
15 25 15 16 0 25 -6 25 -15z m-968 -392 c3 -46 4 -47 50 -62 25 -9 56 -25 67
-35 20 -19 21 -18 61 8 22 14 46 26 53 26 7 0 28 -16 47 -34 l33 -35 -32 -37
c-18 -20 -30 -41 -27 -48 9 -21 53 -131 59 -148 5 -13 17 -18 47 -18 l40 0 0
-79 0 -80 -46 -3 c-45 -3 -47 -4 -59 -43 -6 -22 -19 -53 -27 -70 -15 -28 -15
-31 9 -62 l25 -33 -32 -40 c-17 -22 -35 -40 -39 -40 -4 0 -22 11 -41 25 -34
25 -74 33 -84 16 -3 -5 -26 -18 -50 -30 -43 -20 -45 -23 -48 -68 l-3 -48 -49
-3 c-81 -5 -94 2 -98 50 -3 41 -5 43 -68 75 -36 17 -68 32 -71 32 -3 1 -23
-13 -44 -29 l-38 -31 -30 28 c-47 45 -50 58 -22 91 31 37 31 43 2 90 -12 20
-28 49 -35 65 -10 23 -18 27 -51 27 -37 0 -41 2 -46 33 -4 18 -5 53 -3 77 l3
45 42 3 c41 3 42 4 59 55 9 29 25 69 36 90 l19 38 -26 30 c-31 38 -31 46 2 81
33 34 41 35 87 3 l37 -25 43 25 c23 14 50 25 59 25 26 0 47 29 47 64 0 18 3
36 7 39 3 4 35 7 69 7 l63 0 3 -47z m578 17 c0 -11 -7 -20 -15 -20 -8 0 -15 9
-15 20 0 11 7 20 15 20 8 0 15 -9 15 -20z"/>
<path d="M2653 7632 c-32 -5 -73 -58 -73 -93 0 -62 41 -109 95 -109 41 0 95
59 95 103 0 60 -58 109 -117 99z"/>
<path d="M1960 6991 c-86 -28 -160 -91 -201 -171 -28 -54 -31 -154 -6 -212 21
-49 90 -123 146 -156 95 -56 253 -25 332 65 74 85 95 212 51 304 -28 57 -93
123 -149 150 -47 23 -134 33 -173 20z m136 -121 c79 -39 122 -140 95 -223 -7
-20 -30 -51 -51 -71 -88 -79 -204 -66 -271 32 -36 53 -34 144 5 200 32 47 95
82 145 82 19 0 54 -9 77 -20z"/>
<path d="M1992 7584 c-33 -22 -31 -80 3 -96 19 -8 31 -8 50 0 34 16 36 74 3
96 -12 9 -25 16 -28 16 -3 0 -16 -7 -28 -16z"/>
<path d="M8327 7432 c-10 -10 -17 -23 -17 -28 0 -4 7 1 15 13 8 12 25 24 38
26 21 4 21 4 1 6 -11 0 -28 -7 -37 -17z"/>
<path d="M7085 7230 c-91 -7 -136 -24 -188 -69 -20 -18 -40 -31 -44 -30 -9 2
-53 -70 -52 -86 0 -5 11 11 25 38 34 65 39 59 7 -9 -47 -104 -26 -223 57 -317
17 -20 27 -37 22 -37 -6 0 -15 6 -19 13 -4 6 -17 19 -28 27 -14 10 -13 6 5
-14 26 -29 68 -57 56 -37 -10 15 -5 14 45 -9 51 -23 141 -26 203 -8 27 8 62
33 103 73 50 49 64 70 78 117 22 79 12 218 -16 218 -11 0 -84 79 -84 91 0 4
-4 11 -9 16 -5 5 -6 2 -1 -6 5 -9 3 -12 -6 -9 -8 3 -13 11 -11 17 1 7 -2 10
-7 6 -14 -8 -62 5 -55 16 3 5 4 8 2 7 -2 0 -39 -4 -83 -8z m68 -111 c32 -17
38 -23 25 -28 -13 -4 -15 -10 -8 -21 10 -16 14 -60 5 -60 -3 0 -19 9 -34 21
-59 43 -135 -7 -129 -85 3 -34 9 -44 43 -68 22 -15 50 -27 63 -28 13 0 20 -4
17 -10 -3 -5 2 -10 11 -10 16 0 16 -1 -2 -15 -36 -28 -90 -37 -127 -22 -57 24
-126 135 -112 180 2 7 6 24 9 39 13 60 102 127 169 128 15 0 47 -10 70 -21z"/>
<path d="M8180 7230 c-285 -36 -484 -278 -467 -565 6 -111 35 -196 93 -281
l44 -64 0 -251 c0 -282 3 -295 70 -329 21 -11 57 -20 78 -20 36 0 39 -2 39
-30 0 -57 11 -60 215 -63 170 -2 187 0 207 17 11 11 21 29 21 41 0 19 7 24 47
30 83 12 113 36 113 90 0 28 33 35 182 35 99 0 108 2 122 22 21 30 20 44 -4
68 -18 18 -33 20 -159 20 l-139 0 -7 96 c-4 54 -5 136 -3 185 5 82 8 90 40
131 76 93 108 190 108 328 0 164 -55 295 -169 402 -130 122 -252 161 -431 138z
m76 -134 c8 -35 0 -43 -53 -51 -97 -14 -189 -71 -244 -151 -31 -46 -57 -55
-79 -29 -18 22 -5 56 41 109 77 88 186 144 281 145 42 1 48 -2 54 -23z m318
-123 c49 -52 57 -105 19 -120 -17 -7 -56 32 -83 82 -12 22 -11 27 5 45 24 26
29 25 59 -7z m-204 -162 c5 -11 10 -38 10 -60 l0 -41 50 0 c62 0 95 -27 85
-68 -4 -15 -40 -86 -81 -158 l-74 -131 0 -81 0 -82 -30 0 -30 0 0 95 c0 87 2
99 29 142 59 97 119 212 113 217 -3 3 -34 6 -69 6 l-63 0 0 84 c0 83 4 93 37
95 7 1 17 -8 23 -18z m-476 -54 c-2 -68 -22 -100 -52 -80 -12 8 -17 23 -15 56
2 59 18 89 46 85 20 -3 22 -9 21 -61z m319 -14 c2 -43 3 -81 0 -85 -2 -5 -36
-8 -75 -8 -52 0 -69 -3 -65 -12 2 -7 37 -69 76 -137 l71 -125 0 -92 c0 -72 -3
-93 -15 -98 -37 -14 -45 3 -45 91 0 94 1 92 -96 254 -90 149 -85 179 30 179
l56 0 0 48 c0 55 4 62 35 62 21 0 23 -6 28 -77z m59 -673 c58 0 58 0 58 -30
l0 -30 -181 2 c-157 3 -183 5 -192 20 -8 12 -7 21 3 34 13 15 28 16 134 10 66
-3 145 -6 178 -6z m23 -190 c3 -11 3 -24 0 -30 -4 -6 -71 -10 -171 -10 l-164
0 0 30 0 30 164 0 c156 0 165 -1 171 -20z"/>
<path d="M7270 7187 c0 -2 15 -16 33 -33 l32 -29 -29 33 c-28 30 -36 37 -36
29z"/>
<path d="M3200 7062 c-137 -136 9 -353 175 -259 80 46 105 126 66 213 -26 57
-73 84 -146 84 -53 0 -60 -3 -95 -38z m135 -42 c54 -21 65 -110 17 -146 -27
-21 -89 -17 -112 6 -33 33 -30 95 6 128 28 24 49 27 89 12z"/>
<path d="M2710 6870 c-30 -30 -27 -83 6 -109 15 -12 35 -21 46 -21 27 0 68 45
68 75 0 33 -42 75 -75 75 -14 0 -34 -9 -45 -20z"/>
<path d="M1338 6259 c-37 -21 -14 -89 30 -89 35 0 52 16 52 50 0 45 -40 64
-82 39z"/>
<path d="M8789 6243 c-6 -6 -9 -24 -7 -40 3 -27 5 -28 73 -34 39 -3 76 -4 83
-2 13 5 17 82 5 84 -42 8 -146 2 -154 -8z"/>
<path d="M1527 6043 c-4 -3 -7 -14 -7 -24 0 -27 -19 -33 -41 -13 -19 18 -21
17 -44 -11 -16 -19 -23 -37 -19 -50 12 -43 9 -50 -18 -53 -24 -3 -28 -8 -28
-33 0 -24 4 -29 25 -29 31 0 42 -23 26 -56 -9 -20 -7 -28 9 -44 11 -11 20 -24
20 -30 0 -15 29 -12 47 5 16 17 33 12 33 -11 0 -8 6 -14 14 -14 8 0 21 -3 30
-6 10 -4 17 2 22 20 8 32 17 33 44 4 11 -12 21 -20 23 -17 34 44 44 74 34 97
-9 20 -8 26 8 38 10 8 27 14 38 14 14 0 18 6 15 27 -2 22 -9 29 -33 33 -22 4
-31 11 -33 28 -2 12 1 22 7 22 17 0 13 30 -4 36 -8 4 -15 12 -15 19 0 23 -20
28 -40 10 -16 -15 -22 -15 -35 -5 -8 7 -15 21 -15 31 0 14 -7 19 -28 19 -16 0
-32 -3 -35 -7z m84 -122 c30 -24 33 -89 5 -120 -26 -28 -82 -28 -113 1 -72 68
31 182 108 119z"/>
<path d="M8860 5653 c-31 -12 -50 -37 -50 -68 0 -68 71 -106 123 -65 67 53 7
162 -73 133z"/>
<path d="M7829 5586 c-35 -17 -34 -75 2 -95 24 -13 29 -13 53 2 60 40 10 126
-55 93z"/>
<path d="M1363 5479 c-91 -35 -159 -123 -184 -240 -6 -29 -9 -127 -7 -237 l3
-187 33 -67 c39 -79 103 -141 174 -165 l48 -18 0 -111 c0 -90 -3 -113 -15
-118 -21 -8 -19 -59 3 -78 37 -33 62 -40 92 -28 40 16 67 88 40 105 -6 4 -10
55 -10 120 l0 114 53 24 c76 35 112 70 149 145 l33 66 3 223 c3 186 1 231 -13
272 -41 124 -149 201 -279 200 -46 0 -89 -7 -123 -20z m185 -113 c36 -19 78
-65 91 -99 17 -44 14 -107 -4 -107 -22 0 -77 -30 -92 -49 -10 -13 -12 -9 -13
26 0 61 -7 73 -46 73 -23 0 -37 -6 -44 -19 -6 -12 -10 -111 -10 -251 l0 -231
-22 6 c-42 13 -68 35 -90 78 -22 40 -23 53 -23 237 l1 195 29 53 c48 89 147
128 223 88z m102 -396 c0 -80 0 -80 -24 -74 -14 3 -37 -1 -55 -10 l-31 -17 0
48 c0 45 3 51 47 90 27 23 51 42 56 43 4 0 7 -36 7 -80z"/>
<path d="M8808 4389 c-21 -12 -24 -69 -6 -87 7 -7 24 -12 38 -12 34 0 50 17
50 55 0 50 -38 70 -82 44z"/>
<path d="M5073 3295 c-95 -41 -94 -186 1 -231 67 -32 154 10 177 85 10 32 8
45 -9 83 -30 69 -98 94 -169 63z"/>
<path d="M5857 3132 c-34 -37 -15 -82 34 -82 52 0 77 51 41 83 -24 22 -55 21
-75 -1z"/>
<path d="M6775 3142 c-145 -2 -172 -5 -182 -19 -17 -22 -16 -38 3 -57 13 -14
59 -16 343 -16 305 0 329 1 344 18 22 24 22 46 0 63 -17 15 -134 17 -508 11z"/>
<path d="M3040 3119 c-9 -16 -8 -26 5 -45 l15 -24 305 0 c292 0 306 1 325 20
24 24 25 34 4 54 -13 14 -57 16 -329 16 -307 0 -315 0 -325 -21z"/>
<path d="M3791 3118 c-9 -25 -4 -49 13 -60 13 -9 118 -10 140 -2 26 10 38 41
26 64 -9 17 -21 20 -91 20 -73 0 -80 -2 -88 -22z"/>
<path d="M6062 3128 c-18 -18 -14 -56 7 -68 12 -6 99 -10 214 -10 213 0 221 2
215 57 l-3 28 -210 3 c-155 2 -214 -1 -223 -10z"/>
<path d="M2305 5781 c-3 -5 -2 -12 3 -15 5 -3 9 1 9 9 0 17 -3 19 -12 6z"/>
<path d="M8284 5262 c-206 -73 -265 -337 -107 -483 65 -59 123 -83 208 -83 82
0 115 15 188 82 73 69 92 111 92 207 0 59 -5 89 -19 115 -74 139 -231 209
-362 162z m176 -117 c57 -30 100 -103 100 -173 0 -55 -46 -124 -102 -151 -165
-79 -327 94 -235 251 52 89 148 118 237 73z"/>
<path d="M7793 4648 c-25 -31 -25 -57 1 -73 25 -16 72 -12 61 5 -3 5 0 10 6
12 19 6 -13 63 -37 66 -11 2 -25 -3 -31 -10z m21 -58 c6 0 17 5 24 12 7 7 12
9 12 6 0 -4 -7 -14 -16 -23 -19 -18 -45 -4 -43 24 1 13 2 13 6 -1 2 -10 10
-18 17 -18z"/>
<path d="M7831 4454 c-26 -33 -27 -56 -2 -78 25 -23 49 -18 74 15 17 24 18 30
6 55 -19 39 -51 42 -78 8z"/>
<path d="M7974 4445 c-15 -23 -15 -27 0 -50 20 -30 25 -30 65 -7 50 28 37 82
-21 82 -18 0 -33 -8 -44 -25z"/>
<path d="M7835 4230 c-42 -46 -10 -120 52 -120 41 0 73 30 73 70 0 61 -85 95
-125 50z"/>
<path d="M6522 2518 c-22 -22 -14 -66 14 -85 24 -15 29 -15 53 -2 31 17 39 59
16 83 -19 19 -66 21 -83 4z"/>
<path d="M3669 2519 c-27 -27 -22 -69 12 -88 24 -13 29 -13 53 2 34 22 36 69
4 91 -30 21 -44 20 -69 -5z"/>
<path d="M8481 3809 c-84 -16 -161 -108 -161 -191 0 -72 48 -150 112 -184 16
-8 56 -14 98 -14 98 0 154 29 190 100 28 56 34 119 15 164 -49 116 -121 151
-254 125z m73 -140 c34 -27 36 -82 4 -116 -57 -60 -149 10 -119 90 18 47 73
59 115 26z"/>
<path d="M1637 2682 c-15 -16 -17 -46 -17 -210 0 -179 1 -193 20 -212 25 -25
31 -25 58 0 21 20 22 28 22 218 0 141 -3 201 -12 210 -18 18 -53 15 -71 -6z"/>
<path d="M3050 2411 c-14 -4 -20 -10 -14 -14 6 -3 20 0 30 8 21 16 20 16 -16
6z"/>
</g>
</svg>
